<svg xmlns="http://www.w3.org/2000/svg" viewBox="0 0 1254 1254" width="1254" height="1254">
  <rect width="1254" height="1254" fill="#7979FD"/>
  <path fill="#FEEE63" fill-rule="evenodd" d="M 326.5,261.0 L 320.5,261.5 L 320.2,613.2 C 320.1,819.9 320.4,965.0 320.9,965.0 C 322.2,965.0 324.4,962.7 359.4,926.0 C 365.5,919.7 375.8,908.9 382.4,902.0 C 410.7,872.6 417.8,865.2 440.5,841.5 C 453.7,827.7 468.2,812.6 472.8,807.8 C 481.6,798.7 484.0,795.5 486.8,788.7 C 488.3,784.8 488.5,771.2 489.0,607.5 L 489.5,430.5 L 556.0,430.2 C 622.7,429.9 627.3,430.1 644.5,433.5 C 696.8,444.0 744.4,479.1 772.9,528.2 C 802.0,578.5 807.9,640.3 789.2,698.5 C 777.3,735.2 754.0,770.2 726.9,792.1 C 700.2,813.7 673.3,826.7 644.0,832.1 C 625.3,835.6 620.7,835.9 587.8,836.0 C 539.7,836.0 541.1,835.5 514.0,862.9 C 458.8,918.5 387.5,992.0 387.2,993.6 C 386.9,994.8 404.2,995.0 506.7,995.0 C 617.7,994.9 644.4,994.4 665.5,992.1 C 691.3,989.2 728.3,979.5 749.7,969.9 C 752.1,968.9 754.3,968.0 754.8,968.0 C 755.3,968.0 757.4,967.1 759.6,966.1 C 761.7,965.1 766.0,963.1 769.0,961.7 C 777.1,957.9 794.2,948.7 797.8,946.2 C 799.4,945.0 801.1,944.0 801.5,944.0 C 801.8,944.0 808.1,940.0 815.3,935.1 C 863.2,902.6 903.3,857.4 929.2,806.5 C 941.0,783.4 952.4,753.7 957.9,732.0 C 959.1,727.3 960.5,722.1 961.0,720.5 C 964.7,707.2 969.1,678.7 971.0,655.5 C 973.9,619.6 969.8,569.1 961.5,536.8 C 952.6,502.2 945.4,482.9 931.5,455.5 C 922.3,437.6 921.6,436.4 911.8,421.7 C 870.7,360.1 820.5,318.2 753.5,289.5 C 743.0,285.0 729.3,280.2 715.0,276.1 C 710.9,274.9 706.2,273.5 704.5,273.0 C 695.6,270.3 664.8,264.9 646.0,262.9 C 635.3,261.7 339.1,260.0 326.5,261.0"/>
</svg>
